<svg xmlns="http://www.w3.org/2000/svg" xmlns:xlink="http://www.w3.org/1999/xlink" version="1.1" x="0px" y="0px" style="enable-background:new 0 0 500 500;" xml:space="preserve" viewBox="51 63.47 390.5 372.53">
<g id="BACKGROUND">
</g>
<g id="OBJECTS">
	<path style="fill:#D0DBFF;" d="M437.953,96.5l-9.753,7.98L375,156.793l31.004,10.748c-0.198,0.494-0.391,0.991-0.59,1.485   c-1.867,4.621-3.798,9.21-5.825,13.737c-2.032,4.526-4.12,8.999-6.428,13.318c-9.288,17.345-20.622,33.583-32.942,48.852   c-12.361,15.26-25.827,29.546-40.125,42.849c-7.151,6.651-14.514,13.054-22.06,19.213c-1.869,1.558-3.785,3.063-5.693,4.574   l-2.859,2.267l-2.9,2.217c-1.934,1.475-3.851,2.966-5.821,4.395l-2.934,2.163c-0.975,0.717-1.976,1.477-2.864,2.05   c-14.551,9.977-31.76,16.608-49.686,21.124c-17.966,4.513-36.721,6.981-55.643,8.19c-18.937,1.189-38.083,1.116-57.191,0.097   c-9.553-0.509-19.101-1.257-28.592-2.234c-4.745-0.486-9.474-1.039-14.164-1.647c-2.344-0.305-4.676-0.628-6.981-0.967   l-3.421-0.522l-1.663-0.271l-0.795-0.137c-0.146-0.027-2.863-0.595-4.825-0.974v60.607l0.105,0.004l2.066,0.061l4.042,0.082   c2.672,0.039,5.32,0.056,7.959,0.052c5.276-0.011,10.519-0.088,15.752-0.238c10.464-0.296,20.888-0.846,31.3-1.655   c20.817-1.62,41.591-4.26,62.246-8.309c20.639-4.076,41.201-9.539,61.204-17.461c4.995-1.999,9.953-4.128,14.848-6.462   c4.892-2.347,9.725-4.871,14.47-7.601c4.743-2.738,9.383-5.727,13.894-8.937c4.512-3.206,8.883-6.676,13.03-10.449   c1.088-0.952,1.984-1.815,2.925-2.697l2.808-2.642c1.883-1.746,3.712-3.554,5.553-5.344l2.757-2.688l2.712-2.736   c1.808-1.822,3.62-3.637,5.383-5.503c7.119-7.391,13.999-14.995,20.61-22.811c13.219-15.633,25.379-32.102,36.22-49.346   c10.804-17.263,20.396-35.252,27.796-54.206c1.851-4.758,3.432-9.578,4.933-14.387c1.498-4.814,2.88-9.644,4.192-14.487   c0.137-0.505,0.266-1.012,0.402-1.517l32.29,11.194L437.953,96.5z"/>
	<path style="fill:none;stroke:#D0DBFF;stroke-width:4;stroke-linecap:round;stroke-miterlimit:10;" d="M211.963,201.914   c5.334,0.719,10.934-0.797,15.176-4.109"/>
	<g>
		<linearGradient id="SVGID_1_" gradientUnits="userSpaceOnUse" x1="63" y1="224" x2="199" y2="224">
			<stop offset="0.0037" style="stop-color:#F47960"/>
			<stop offset="1" style="stop-color:#F9B776"/>
		</linearGradient>
		<path style="fill:url(#SVGID_1_);" d="M194,229H68c-2.761,0-5-2.239-5-5l0,0c0-2.761,2.239-5,5-5h126c2.761,0,5,2.239,5,5l0,0    C199,226.761,196.761,229,194,229z"/>
		
			<linearGradient id="SVGID_00000089562364805027221480000007627696558997563278_" gradientUnits="userSpaceOnUse" x1="63" y1="242" x2="199" y2="242">
			<stop offset="0.0037" style="stop-color:#F47960"/>
			<stop offset="1" style="stop-color:#F9B776"/>
		</linearGradient>
		<path style="fill:url(#SVGID_00000089562364805027221480000007627696558997563278_);" d="M194,247H68c-2.761,0-5-2.239-5-5l0,0    c0-2.761,2.239-5,5-5h126c2.761,0,5,2.239,5,5l0,0C199,244.761,196.761,247,194,247z"/>
		<path style="fill:#D0DBFF;" d="M194,237h-70v10h70c2.761,0,5-2.239,5-5S196.761,237,194,237z"/>
		
			<linearGradient id="SVGID_00000147203506846657709200000001265537571343189650_" gradientUnits="userSpaceOnUse" x1="63" y1="261" x2="199" y2="261">
			<stop offset="0.0037" style="stop-color:#F47960"/>
			<stop offset="1" style="stop-color:#F9B776"/>
		</linearGradient>
		<path style="fill:url(#SVGID_00000147203506846657709200000001265537571343189650_);" d="M194,266H68c-2.761,0-5-2.239-5-5l0,0    c0-2.761,2.239-5,5-5h126c2.761,0,5,2.239,5,5l0,0C199,263.761,196.761,266,194,266z"/>
		<path style="fill:#D0DBFF;" d="M194,256h-88v10h88c2.761,0,5-2.239,5-5S196.761,256,194,256z"/>
		
			<linearGradient id="SVGID_00000023257798554081493960000004689923262190635928_" gradientUnits="userSpaceOnUse" x1="63" y1="281" x2="199" y2="281">
			<stop offset="0.0037" style="stop-color:#F47960"/>
			<stop offset="1" style="stop-color:#F9B776"/>
		</linearGradient>
		<path style="fill:url(#SVGID_00000023257798554081493960000004689923262190635928_);" d="M194,286H68c-2.761,0-5-2.239-5-5l0,0    c0-2.761,2.239-5,5-5h126c2.761,0,5,2.239,5,5l0,0C199,283.761,196.761,286,194,286z"/>
		<path style="fill:#D0DBFF;" d="M194,276H86v10h108c2.761,0,5-2.239,5-5S196.761,276,194,276z"/>
		
			<linearGradient id="SVGID_00000052074810363236581780000002786915715719083162_" gradientUnits="userSpaceOnUse" x1="63" y1="301" x2="199" y2="301">
			<stop offset="0.0037" style="stop-color:#F47960"/>
			<stop offset="1" style="stop-color:#F9B776"/>
		</linearGradient>
		<path style="fill:url(#SVGID_00000052074810363236581780000002786915715719083162_);" d="M194,306H68c-2.761,0-5-2.239-5-5l0,0    c0-2.761,2.239-5,5-5h126c2.761,0,5,2.239,5,5l0,0C199,303.761,196.761,306,194,306z"/>
		<path style="fill:#D0DBFF;" d="M194,296H86v10h108c2.761,0,5-2.239,5-5S196.761,296,194,296z"/>
		<path style="fill:#D0DBFF;" d="M194,219h-40v10h40c2.761,0,5-2.239,5-5S196.761,219,194,219z"/>
	</g>
	<path style="fill:#2F78FA;" d="M427,319.554c0-22.308-31.159-27.578-38.495-6.511l-24.207,69.514   c-5.017,14.406-23.755,17.965-33.704,6.402l-16.882-19.62c-8.297-9.643-23.406-9.07-30.949,1.173l-24.275,32.963   c-3.085,4.189-7.597,6.875-12.487,7.743l-33.566-8.371c-9.89-2.466-20.353-0.942-29.128,4.243l-18.39,10.867   c-7.706,4.554-16.75,6.303-25.599,4.951c0,0-40.317-14.91-56.317-3.91l-32,17h195h181V319.554z"/>
	<path style="fill:#031D7C;" d="M200,436l18.279-11.126c3.018-1.837,6.651-2.373,10.071-1.487l13.614,3.53   c4.904,1.271,10.101-0.407,13.335-4.307l17.571-21.189c5.563-6.708,16.009-6.193,20.884,1.03l8.382,12.418   c4.595,6.808,14.258,7.737,20.066,1.929l9.139-9.139c3.976-3.976,10.051-4.962,15.08-2.447l7.979,3.989   c7.154,3.577,15.815-0.057,18.274-7.669l49.767-154.04c1.457-4.511,8.129-3.397,8.041,1.343L427,436H200z"/>
	<g>
		<rect x="106" y="393.635" style="fill:#D0DBFF;" width="2" height="42.365"/>
		<rect x="245" y="360.348" style="fill:#D0DBFF;" width="2" height="75.652"/>
		<rect x="345" y="280" style="fill:#D0DBFF;" width="2" height="156"/>
		<rect x="295" y="320" style="fill:#D0DBFF;" width="2" height="116"/>
		<rect x="195" y="393.635" style="fill:#D0DBFF;" width="2" height="42.365"/>
		<rect x="152" y="393.635" style="fill:#D0DBFF;" width="2" height="42.365"/>
	</g>
	
		<linearGradient id="SVGID_00000168098024259832902730000018169764965739166119_" gradientUnits="userSpaceOnUse" x1="220.1792" y1="161.1015" x2="121.6749" y2="106.812" gradientTransform="matrix(0.9829 -0.1842 0.1842 0.9829 62.1534 30.0389)">
		<stop offset="0" style="stop-color:#FDF53F"/>
		<stop offset="1" style="stop-color:#D93C65"/>
	</linearGradient>
	<path style="fill:url(#SVGID_00000168098024259832902730000018169764965739166119_);" d="M283.514,120.534l-5.708,24.994   c9.366,12.08,18.37,18.031,26.651,20.109c-0.199-8.583,3.368-16.406,6.17-21.181C294.57,146.949,283.514,120.534,283.514,120.534z"/>
	
		<linearGradient id="SVGID_00000068679385145629840930000000091271961165854367_" gradientUnits="userSpaceOnUse" x1="268.5521" y1="150.0567" x2="155.8191" y2="204.6678" gradientTransform="matrix(0.9829 -0.1842 0.1842 0.9829 62.1534 30.0389)">
		<stop offset="0" style="stop-color:#F9B776"/>
		<stop offset="1" style="stop-color:#F47960"/>
	</linearGradient>
	<path style="fill:url(#SVGID_00000068679385145629840930000000091271961165854367_);" d="M343.383,134.1   c-13.425,11.767-24.461,13.794-32.903,10.885c-2.801,4.775-6.222,12.07-6.023,20.653c26.326,6.608,45.335-26.008,45.335-26.008   L343.383,134.1z"/>
	
		<linearGradient id="SVGID_00000168820706603565272450000005031825789001578408_" gradientUnits="userSpaceOnUse" x1="141.9867" y1="140.0046" x2="151.7659" y2="140.0046" gradientTransform="matrix(0.9829 -0.1842 0.1842 0.9829 62.1534 30.0389)">
		<stop offset="0" style="stop-color:#FDF53F"/>
		<stop offset="1" style="stop-color:#D93C65"/>
	</linearGradient>
	<path style="fill:url(#SVGID_00000168820706603565272450000005031825789001578408_);" d="M227.695,142.533l9.223-3.876   L227.695,142.533z"/>
	<path style="fill:#023DE7;" d="M283.514,120.534l-6.016-2.305L283.514,120.534z"/>
	<g>
		<path style="fill:#F47960;" d="M234.869,202.139c-12.632,0-25.042-2.447-34.425-7.24c-29.849-15.248-61.789-26.468-93.117-5.494    L109,181l-8.349-1.567c36.572-24.486,73.729-11.326,105.252,4.779c14.106,7.206,37.611,7.943,54.675,1.715    c7.033-2.567,14.724-6.143,18.422-14.927l1,7c0,0-2.006,14.344-15.307,19.199C255.623,200.51,245.171,202.139,234.869,202.139z"/>
	</g>
	<polygon style="fill:#F47960;" points="52,408 52,407.928 51.998,407.928  "/>
	<g>
		<path style="fill:#F47960;" d="M276.356,177.195c-12.421-1.329-24.643-5.389-32.704-11.388    c-28.395-21.137-62.836-40.311-102.98-22.269l7.971,2.938l-3.052,8.008c34.388-15.455,64.009,0.936,90.896,20.949    c8.453,6.292,20.28,10.774,32.735,12.881c1.905,0.322,3.825,0.57,5.749,0.779C275.068,185.497,275.401,180.902,276.356,177.195z"/>
		<g>
			<g>
				
					<linearGradient id="SVGID_00000102541696292578764530000017067815417189735043_" gradientUnits="userSpaceOnUse" x1="42.0475" y1="329.4218" x2="59.6975" y2="329.4218" gradientTransform="matrix(0.9829 -0.1842 0.1842 0.9829 62.1534 30.0389)">
					<stop offset="0" style="stop-color:#53D8FF"/>
					<stop offset="1" style="stop-color:#3840F7"/>
				</linearGradient>
				<path style="fill:url(#SVGID_00000102541696292578764530000017067815417189735043_);" d="M162.351,326.779      c-1.164,1.036-1.523,2.825-0.905,4.397c2.433,6.185,9.656,22.372,21.366,30.562c0.773,0.541,1.707,0.305,2.165-0.399      c-2.975-2.126-6.892-5.98-11.91-12.831C165.354,337.977,162.99,331.034,162.351,326.779z"/>
				
					<linearGradient id="SVGID_00000134230251190267891250000014959367940867509415_" gradientUnits="userSpaceOnUse" x1="43.8097" y1="328.3121" x2="60.3154" y2="328.3121" gradientTransform="matrix(0.9829 -0.1842 0.1842 0.9829 62.1534 30.0389)">
					<stop offset="0" style="stop-color:#2B3582"/>
					<stop offset="1" style="stop-color:#150E42"/>
				</linearGradient>
				<path style="fill:url(#SVGID_00000134230251190267891250000014959367940867509415_);" d="M174.999,324.16      c0,0-6.984-2.26-12.609,2.579c-0.014,0.012-0.025,0.027-0.038,0.039c0.639,4.255,3.003,11.198,10.716,21.728      c5.018,6.851,8.935,10.705,11.91,12.831c0.145-0.223,0.245-0.49,0.275-0.798C185.897,353.78,172.681,348.86,174.999,324.16z"/>
				
					<linearGradient id="SVGID_00000163034953564604747870000008791362764303291794_" gradientUnits="userSpaceOnUse" x1="49.1857" y1="308.3217" x2="62.9963" y2="308.3217" gradientTransform="matrix(0.9829 -0.1842 0.1842 0.9829 62.1534 30.0389)">
					<stop offset="0" style="stop-color:#F9B776"/>
					<stop offset="1" style="stop-color:#F47960"/>
				</linearGradient>
				<path style="fill:url(#SVGID_00000163034953564604747870000008791362764303291794_);" d="M180.111,322.598l-4.71,6.586      c-0.833,1.165-2.362,1.614-3.68,1.055c-1.15-0.487-2.498-1.387-3.594-3.05c-0.658-0.998-0.674-2.292-0.047-3.309l4.551-7.382      c1.086-1.762,3.568-1.969,4.932-0.412l2.361,2.696C180.864,319.857,180.942,321.436,180.111,322.598z"/>
				<g>
					<g>
						<path style="fill:#D0DBFF;" d="M176.831,342.167c-0.215,0-0.414-0.14-0.479-0.357c-0.199-0.664-0.77-1.218-1.529-1.481        c-0.758-0.265-1.55-0.185-2.118,0.212c-0.226,0.158-0.539,0.103-0.696-0.124c-0.158-0.227-0.103-0.538,0.123-0.696        c0.831-0.58,1.96-0.707,3.02-0.336c1.061,0.369,1.868,1.169,2.159,2.139c0.079,0.265-0.071,0.543-0.335,0.622        C176.927,342.16,176.879,342.167,176.831,342.167z"/>
					</g>
					<g>
						<path style="fill:#D0DBFF;" d="M179.072,347.494c-0.192,0-0.376-0.111-0.458-0.299c-0.531-1.206-2.127-1.855-3.349-1.367        c-0.255,0.104-0.547-0.021-0.65-0.277c-0.103-0.257,0.021-0.548,0.278-0.65c1.722-0.692,3.889,0.192,4.636,1.893        c0.111,0.253-0.003,0.548-0.256,0.659C179.207,347.48,179.139,347.494,179.072,347.494z"/>
					</g>
				</g>
			</g>
			
				<linearGradient id="SVGID_00000098180784770837899820000010979942929805147048_" gradientUnits="userSpaceOnUse" x1="53.6591" y1="257.8001" x2="155.884" y2="257.8001" gradientTransform="matrix(0.9829 -0.1842 0.1842 0.9829 62.1534 30.0389)">
				<stop offset="0.12" style="stop-color:#021E9E"/>
				<stop offset="0.5311" style="stop-color:#001FA9"/>
				<stop offset="1" style="stop-color:#201600"/>
			</linearGradient>
			<path style="fill:url(#SVGID_00000098180784770837899820000010979942929805147048_);" d="M219.022,208.259     c0,0-4.233,42.088-8.517,61.04c0,0-12.856,4.499-20.15,10.821c-7.294,6.321-19.966,36.155-19.966,36.155     s6.247,7.884,12.058,8.183l43.703-44.215l31.348-54.129l-5.955-21.265L219.022,208.259z"/>
		</g>
		<g>
			<g>
				
					<linearGradient id="SVGID_00000112592097349435181870000013192073244502499490_" gradientUnits="userSpaceOnUse" x1="250.9042" y1="265.0486" x2="277.3603" y2="265.0486" gradientTransform="matrix(0.9829 -0.1842 0.1842 0.9829 62.1534 30.0389)">
					<stop offset="0" style="stop-color:#53D8FF"/>
					<stop offset="1" style="stop-color:#3840F7"/>
				</linearGradient>
				<path style="fill:url(#SVGID_00000112592097349435181870000013192073244502499490_);" d="M360.555,260.165      c1.476,0.5,3.209-0.072,4.27-1.387c4.174-5.172,14.676-19.451,16.008-33.678c0.088-0.939-0.578-1.634-1.417-1.685      c-0.378,3.637-1.793,8.947-5.268,16.696C368.806,252.02,363.939,257.507,360.555,260.165z"/>
				
					<linearGradient id="SVGID_00000103261858768692727060000012187230190188600255_" gradientUnits="userSpaceOnUse" x1="244.3098" y1="264.8014" x2="276.2109" y2="264.8014" gradientTransform="matrix(0.9829 -0.1842 0.1842 0.9829 62.1534 30.0389)">
					<stop offset="0" style="stop-color:#2B3582"/>
					<stop offset="1" style="stop-color:#150E42"/>
				</linearGradient>
				<path style="fill:url(#SVGID_00000103261858768692727060000012187230190188600255_);" d="M352.028,250.465      c0,0,1.487,7.188,8.474,9.686c0.017,0.006,0.036,0.008,0.053,0.014c3.384-2.658,8.251-8.145,13.592-20.055      c3.476-7.749,4.89-13.058,5.268-16.696c-0.265-0.016-0.547,0.029-0.829,0.155c-4.462,2.003-13.747,16.019-22.408,18.66      C352.234,243.432,355.218,248.35,352.028,250.465z"/>
				
					<linearGradient id="SVGID_00000011749760957019500550000016333562369053221565_" gradientUnits="userSpaceOnUse" x1="235.8523" y1="263.878" x2="251.0258" y2="263.878" gradientTransform="matrix(0.9829 -0.1842 0.1842 0.9829 62.1534 30.0389)">
					<stop offset="0" style="stop-color:#F9B776"/>
					<stop offset="1" style="stop-color:#F47960"/>
				</linearGradient>
				<path style="fill:url(#SVGID_00000011749760957019500550000016333562369053221565_);" d="M349.345,238.604l6.981,4.103      c1.235,0.726,1.818,2.208,1.38,3.571c-0.382,1.189-1.159,2.612-2.717,3.853c-0.935,0.744-2.222,0.876-3.292,0.342l-7.759-3.874      c-1.852-0.925-2.28-3.378-0.851-4.875l2.474-2.593C346.547,238.099,348.114,237.881,349.345,238.604z"/>
				<g>
					<path style="fill:#D0DBFF;" d="M368.5,244c-0.125,0-0.249-0.046-0.347-0.14c-2.272-2.183-4.153-4.244-4.153-7.36       c0-0.276,0.224-0.5,0.5-0.5s0.5,0.224,0.5,0.5c0,2.727,1.667,4.546,3.847,6.64c0.199,0.191,0.205,0.508,0.014,0.707       C368.763,243.949,368.631,244,368.5,244z"/>
				</g>
				<g>
					<path style="fill:#D0DBFF;" d="M371.496,239.598c-0.037,0-0.074-0.004-0.112-0.013c-1.383-0.319-2.618-1.273-3.39-2.616       c-0.771-1.344-0.972-2.892-0.55-4.246c0.082-0.264,0.363-0.409,0.626-0.329c0.264,0.082,0.411,0.363,0.329,0.626       c-0.34,1.09-0.171,2.349,0.462,3.452c0.633,1.103,1.635,1.883,2.747,2.14c0.27,0.062,0.436,0.331,0.375,0.6       C371.93,239.442,371.725,239.598,371.496,239.598z"/>
				</g>
			</g>
			
				<linearGradient id="SVGID_00000052103038836644293990000018111474614384415143_" gradientUnits="userSpaceOnUse" x1="118.6031" y1="233.4581" x2="244.3094" y2="233.4581" gradientTransform="matrix(0.9829 -0.1842 0.1842 0.9829 62.1534 30.0389)">
				<stop offset="0.12" style="stop-color:#021E9E"/>
				<stop offset="0.5311" style="stop-color:#001FA9"/>
				<stop offset="1" style="stop-color:#201600"/>
			</linearGradient>
			<path style="fill:url(#SVGID_00000052103038836644293990000018111474614384415143_);" d="M219.133,204.87l-1.379,11.567     c0,0,8.502,28.053,43.704,16.456s38.635-18.343,38.635-18.343s0.294,18.879,43.898,33.472c0,0,5.152-5.655,5.509-11.047     l-36.215-40.416c-4.97-5.26-8.834-6.167-15.655-3.751c-15.083,5.342-43.584,13.963-48.128,14.036L219.133,204.87z"/>
		</g>
		
			<linearGradient id="SVGID_00000132063779167824595550000007160242251363593621_" gradientUnits="userSpaceOnUse" x1="282.46" y1="114.0976" x2="186.8712" y2="229.5128" gradientTransform="matrix(0.9829 -0.1842 0.1842 0.9829 -34.6363 48.1806)">
			<stop offset="0" style="stop-color:#FDF53F"/>
			<stop offset="1" style="stop-color:#D93C65"/>
		</linearGradient>
		<path style="fill:url(#SVGID_00000132063779167824595550000007160242251363593621_);" d="M232.107,118.35    c-10.422,2.507-26.117,10.627-35.007,22.532c3.986,3.026,10.178,8.001,15.063,13.146c2.789-3.812,8.863-8.836,15.388-11.813    c0.49,24.326-6.524,47.053-11.374,68.227c-0.303,1.325,0.57,2.629,1.914,2.832c7.023,1.061,27.49,2.889,41.431-8.845l25.292-55.98    c2.72-6.02,4.019-12.586,3.798-19.188l-5.096-8.726C283.514,120.534,254.816,112.887,232.107,118.35z"/>
		
			<linearGradient id="SVGID_00000067920290830065630840000017916784824562222976_" gradientUnits="userSpaceOnUse" x1="186.8883" y1="197.079" x2="276.4077" y2="129.073" gradientTransform="matrix(0.9829 -0.1842 0.1842 0.9829 -34.6363 48.1806)">
			<stop offset="0" style="stop-color:#001FA9"/>
			<stop offset="1" style="stop-color:#2F78FA"/>
		</linearGradient>
		<path style="fill:url(#SVGID_00000067920290830065630840000017916784824562222976_);" d="M249.022,115.445    c-2.018,0.65-3.062,3.123-2.56,5.183c0.502,2.06,2.221,3.653,4.151,4.53c1.931,0.877,6.18,1.388,6.18,1.388    s6.598,68.47-39.046,96.356c-6.699,4.093-32.925-18.247-32.925-18.247s27.09-2.025,35.297-17.455    c4.269-8.027,6.172-38.136,6.172-38.136S191.037,168.109,207,196c1.01,1.764-11,4-11,4s-19.223-32.479-0.208-58.954    C213.946,115.769,249.022,115.445,249.022,115.445z"/>
		<g>
			
				<linearGradient id="SVGID_00000140695561408316972470000006892947459569221527_" gradientUnits="userSpaceOnUse" x1="170.9866" y1="136.0211" x2="178.0079" y2="115.9972" gradientTransform="matrix(0.9829 -0.1842 0.1842 0.9829 62.1534 30.0389)">
				<stop offset="0" style="stop-color:#F9B776"/>
				<stop offset="1" style="stop-color:#F47960"/>
			</linearGradient>
			<path style="fill:url(#SVGID_00000140695561408316972470000006892947459569221527_);" d="M252.994,100.826l-5.718,19.371     c-0.349,1.182,0.059,2.454,1.037,3.204c2.643,2.026,8.55,5.014,17.004,0.495c0.932-0.498,1.482-1.503,1.44-2.559l-0.657-16.496     L252.994,100.826z"/>
			
				<linearGradient id="SVGID_00000018935741119789717480000000121496778025408394_" gradientUnits="userSpaceOnUse" x1="190.9829" y1="94.7393" x2="160.173" y2="118.3136" gradientTransform="matrix(0.9829 -0.1842 0.1842 0.9829 62.1534 30.0389)">
				<stop offset="0" style="stop-color:#F9B776"/>
				<stop offset="1" style="stop-color:#F47960"/>
			</linearGradient>
			<path style="fill:url(#SVGID_00000018935741119789717480000000121496778025408394_);" d="M264.203,77.476     c0,0,7.578,11.176,9.131,17.496c1.553,6.32,3.706,10.207-3.438,12.877c-7.144,2.67-14.055,0.158-18.618-5.573     c0,0-7.118-8.814-6.686-13.051C245.024,84.989,264.203,77.476,264.203,77.476z"/>
			
				<linearGradient id="SVGID_00000075147696735985193840000016476942762498279811_" gradientUnits="userSpaceOnUse" x1="291.0074" y1="97.4016" x2="296.7005" y2="97.4016" gradientTransform="matrix(0.9829 -0.1842 0.1842 0.9829 -34.6363 48.1806)">
				<stop offset="0" style="stop-color:#F9B776"/>
				<stop offset="0.9972" style="stop-color:#F47960"/>
			</linearGradient>
			<path style="fill:url(#SVGID_00000075147696735985193840000016476942762498279811_);" d="M268.729,85.019     c2.082,2.573,4.345,4.999,6.767,7.255c-1.559,1.056-3.118,2.113-4.677,3.169c-0.746-3.055-1.492-6.11-2.239-9.165"/>
			<path style="fill:#003DE6;" d="M268.136,66.63c-1.122-1.411-2.589-2.442-4.124-2.819c-0.098-0.024-0.195-0.012-0.285,0.016     c-0.353-0.104-0.711-0.194-1.077-0.251c-4.386-0.693-9.067,2.116-10.518,6.312c-0.225,0.65-0.343,1.357-0.365,2.064     c-8.327,3.37-13.324,8.082-12.324,14.215c0.065,0.402-0.318,0.704-0.699,0.56c-0.75-0.284-1.862-0.275-3.074,1.205     c-2.108,2.573-0.061,7.839,6.266,11.3c0.3,0.164,0.375,0.572,0.127,0.808c-0.873,0.834-2.067,2.652,2.159,3.985     c4.371,1.379,7.305,0.649,8.412,0.246c0.275-0.1,0.407-0.41,0.292-0.679l-2.256-5.305c-0.128-0.3,0.055-0.642,0.376-0.702     l1.899-0.356l0.386-0.264c0.491-0.336,0.6-1.016,0.234-1.485c-1.419-1.817-4.313-6.047-1.892-7.615     c3.12-2.02,15.997-7.259,17.995-12.552c0.402-1.064,0.552-2.141,0.52-3.191C270.188,72.122,269.68,68.324,268.136,66.63z"/>
			
				<linearGradient id="SVGID_00000110433858854937820120000009073350820263803828_" gradientUnits="userSpaceOnUse" x1="187.1612" y1="89.7451" x2="156.3515" y2="113.3192" gradientTransform="matrix(0.9829 -0.1842 0.1842 0.9829 62.1534 30.0389)">
				<stop offset="0" style="stop-color:#F9B776"/>
				<stop offset="1" style="stop-color:#F47960"/>
			</linearGradient>
			<path style="fill:url(#SVGID_00000110433858854937820120000009073350820263803828_);" d="M253.393,98.354     c0,0-3.478-7.395-6.555-4.562c-3.077,2.833,3.441,8.37,6.297,8.136L253.393,98.354z"/>
		</g>
		<g>
			
				<linearGradient id="SVGID_00000026144109264346612050000005894768601438722491_" gradientUnits="userSpaceOnUse" x1="267.3788" y1="166.2165" x2="350.3767" y2="166.2165" gradientTransform="matrix(0.9829 -0.1842 0.1842 0.9829 -34.6363 48.1806)">
				<stop offset="0" style="stop-color:#001FA9"/>
				<stop offset="1" style="stop-color:#2F78FA"/>
			</linearGradient>
			<path style="fill:url(#SVGID_00000026144109264346612050000005894768601438722491_);" d="M283.514,120.534     c3.868,4.362,16.724,22.425,26.966,24.451c15.849,3.134,22.422-5.22,22.422-5.22l8.108,10.689c0,0-18.001,28.809-48.96,10.194     c-4.905-2.949-8.354-6.574-8.354-6.574s-5.284,15.234-6.022,27.581c-0.738,12.347,2.174,17.026,2.174,17.026l-13.233,5.395     c0,0,4.419-25.171,5.839-44.843c1.414-19.596,0.677-23.527-5.465-34.585l1.659-7.433"/>
			<g>
				<path style="fill:#D0DBFF;" d="M342.365,154.405c-0.639,0-1.267-0.305-1.654-0.873c-3.506-5.14-5.733-7.68-7.36-9.534      c-0.701-0.799-1.307-1.49-1.854-2.206c-0.671-0.878-0.503-2.133,0.375-2.804c0.878-0.672,2.133-0.501,2.803,0.375      c0.466,0.609,1.003,1.222,1.684,1.997c1.694,1.932,4.015,4.577,7.658,9.918c0.622,0.913,0.387,2.157-0.525,2.779      C343.145,154.292,342.753,154.405,342.365,154.405z"/>
			</g>
			
				<linearGradient id="SVGID_00000090293201355101936500000014577342882221111441_" gradientUnits="userSpaceOnUse" x1="344.5267" y1="182.6999" x2="371.904" y2="182.6999" gradientTransform="matrix(0.685 -0.7285 0.7285 0.685 -28.4726 262.4737)">
				<stop offset="0" style="stop-color:#F9B776"/>
				<stop offset="1" style="stop-color:#F47960"/>
			</linearGradient>
			<path style="fill:url(#SVGID_00000090293201355101936500000014577342882221111441_);" d="M343.397,117.071     c1.226,0.194,2.193,1.211,2.675,2.355c0.482,1.144,0.563,2.41,0.637,3.648c0.112,1.862,0.224,3.723,0.337,5.584     c2.096-2.538,4.614-4.78,7.58-6.206c2.966-1.427,6.409-1.993,9.603-1.2c-3.078,2.552-6.519,4.666-10.188,6.256     c3.002-2.455,7.051-3.582,10.889-3.031c-2.639,1.928-5.598,3.419-8.719,4.391c1.81-0.572,3.619-1.145,5.429-1.717     c0.832-0.263,1.969-0.412,2.371,0.363c-3.06,1.683-6.12,3.367-9.18,5.05c2.313-0.956,4.625-1.912,6.938-2.868     c0.44,0.871-0.54,1.757-1.376,2.261c-4.904,2.96-9.44,6.53-13.47,10.601c-3-4.524-5.199-4.904-4.417-10.353     C342.693,130.91,344.108,117.183,343.397,117.071z"/>
		</g>
		
			<linearGradient id="SVGID_00000101803887586633838540000003845609199517602978_" gradientUnits="userSpaceOnUse" x1="100.6509" y1="184.0188" x2="280" y2="184.0188">
			<stop offset="6.610600e-04" style="stop-color:#F47960"/>
			<stop offset="0.9985" style="stop-color:#FF1D25"/>
		</linearGradient>
		<path style="fill:url(#SVGID_00000101803887586633838540000003845609199517602978_);" d="M234.869,202.139    c-12.632,0-25.042-2.447-34.425-7.24c-29.849-15.248-61.789-26.468-93.117-5.494L109,181l-8.349-1.567    c36.572-24.486,73.729-11.326,105.252,4.779c14.106,7.206,37.611,7.943,54.675,1.715c7.033-2.567,14.724-6.143,18.422-14.927l1,7    c0,0-2.006,14.344-15.307,19.199C255.623,200.51,245.171,202.139,234.869,202.139z"/>
		<g>
			<polygon style="fill:#820000;" points="227.484,275.176 147.416,252.867 153.168,232.223 233.236,254.533 227.484,275.176    "/>
			<g>
				<path style="fill:#F47960;" d="M234.63,235.146L162,214.909l-0.53-0.148c-3.799-1.059-7.774,1.184-8.833,4.984l-3.165,11.36      c-0.756,2.713,0.105,4.878,2.09,6.735c0.795,0.744,1.77,1.438,2.894,2.099l34.963,17.021l38.727,3.512      c1.281-0.041,2.495-0.165,3.596-0.422l4.936-17.716C237.42,239.668,236.535,236.917,234.63,235.146z"/>
				<g>
					
						<linearGradient id="SVGID_00000072967198051061322260000001968415160665050249_" gradientUnits="userSpaceOnUse" x1="143.3922" y1="266.3546" x2="231.4411" y2="266.3546">
						<stop offset="6.610600e-04" style="stop-color:#F47960"/>
						<stop offset="0.9985" style="stop-color:#FF1D25"/>
					</linearGradient>
					<path style="fill:url(#SVGID_00000072967198051061322260000001968415160665050249_);" d="M189.118,258.034l-34.962-17.021       c-1.124-0.66-2.099-1.355-2.894-2.099l-7.608,27.304c-1.059,3.8,1.184,7.774,4.984,8.833l66.328,18.481       c3.8,1.059,7.775-1.184,8.833-4.983l7.642-27.425c-1.101,0.257-2.315,0.381-3.596,0.421L189.118,258.034L189.118,258.034z"/>
					
						<linearGradient id="SVGID_00000126290158257132649280000012656655061413846959_" gradientUnits="userSpaceOnUse" x1="180.5317" y1="257.5892" x2="233.1584" y2="257.5892">
						<stop offset="0" style="stop-color:#FDF53F"/>
						<stop offset="1" style="stop-color:#D93C65"/>
					</linearGradient>
					<polygon style="fill:url(#SVGID_00000126290158257132649280000012656655061413846959_);" points="193.427,267.507        180.532,263.913 185.057,247.672 197.953,251.265 193.427,267.507      "/>
					
						<linearGradient id="SVGID_00000093141866770931482580000008010158295201260160_" gradientUnits="userSpaceOnUse" x1="183.8388" y1="257.6393" x2="216.0684" y2="257.6393">
						<stop offset="0.0037" style="stop-color:#F47960"/>
						<stop offset="1" style="stop-color:#F9B776"/>
					</linearGradient>
					<polygon style="fill:url(#SVGID_00000093141866770931482580000008010158295201260160_);" points="191.736,263.713        183.839,261.512 186.61,251.566 194.508,253.766 191.736,263.713      "/>
					
						<linearGradient id="SVGID_00000131342190066932812940000007821055578329265049_" gradientUnits="userSpaceOnUse" x1="182.0457" y1="220.4766" x2="187.46" y2="220.4766">
						<stop offset="6.610600e-04" style="stop-color:#F47960"/>
						<stop offset="0.9985" style="stop-color:#FF1D25"/>
					</linearGradient>
					<polygon style="fill:url(#SVGID_00000131342190066932812940000007821055578329265049_);" points="187.061,221.892        182.046,220.494 182.445,219.061 187.46,220.459 187.061,221.892      "/>
					
						<linearGradient id="SVGID_00000027574610931107297100000004681572578691633047_" gradientUnits="userSpaceOnUse" x1="209.4744" y1="228.1192" x2="214.8889" y2="228.1192">
						<stop offset="6.610600e-04" style="stop-color:#F47960"/>
						<stop offset="0.9985" style="stop-color:#FF1D25"/>
					</linearGradient>
					<polygon style="fill:url(#SVGID_00000027574610931107297100000004681572578691633047_);" points="214.49,229.534        209.474,228.137 209.874,226.704 214.889,228.102 214.49,229.534      "/>
					
						<linearGradient id="SVGID_00000151526429022221841880000001507559845516890812_" gradientUnits="userSpaceOnUse" x1="183.004" y1="220.3317" x2="214.4643" y2="220.3317">
						<stop offset="6.610600e-04" style="stop-color:#F47960"/>
						<stop offset="0.9985" style="stop-color:#FF1D25"/>
					</linearGradient>
					<path style="fill:url(#SVGID_00000151526429022221841880000001507559845516890812_);" d="M201.371,213.664       c-8.62-2.402-16.843,0.084-18.367,5.553l3.872,1.079c1.146-4.112,7.329-5.982,13.811-4.176       c6.482,1.806,10.808,6.604,9.662,10.716l3.871,1.079C215.743,222.446,209.991,216.066,201.371,213.664L201.371,213.664z"/>
				</g>
			</g>
		</g>
		<g>
			<g>
				<path style="fill:#D0DBFF;" d="M257.238,129.301c-0.072,0-0.145-0.004-0.218-0.012c-3.183-0.344-7.144-0.772-10.205-3.246      c-1.771-1.431-3.821-4.218-3.773-7.367c0.031-2.034,0.948-3.792,2.652-5.084c0.88-0.668,2.135-0.494,2.802,0.385      c0.667,0.88,0.495,2.135-0.385,2.802c-0.717,0.544-1.057,1.166-1.069,1.957c-0.023,1.522,1.133,3.262,2.287,4.194      c1.988,1.606,4.736,2.014,8.121,2.38c1.099,0.119,1.893,1.105,1.773,2.204C259.113,128.542,258.246,129.301,257.238,129.301z"/>
			</g>
			<g>
				<path style="fill:#D0DBFF;" d="M266.366,127.076c-0.432,0-0.867-0.139-1.233-0.426c-0.869-0.681-1.021-1.938-0.34-2.808      c1.243-1.586,1.754-3.794,1.332-5.764c-0.23-1.08,0.458-2.143,1.538-2.374c1.077-0.231,2.143,0.457,2.374,1.538      c0.673,3.146-0.111,6.536-2.096,9.068C267.547,126.813,266.959,127.076,266.366,127.076z"/>
			</g>
		</g>
		<g>
			
				<linearGradient id="SVGID_00000119101290249267491940000010065224361165256838_" gradientUnits="userSpaceOnUse" x1="193.708" y1="137.4364" x2="219.5148" y2="137.4364" gradientTransform="matrix(0.2801 0.96 -0.96 0.2801 282.8492 -29.9329)">
				<stop offset="0" style="stop-color:#F9B776"/>
				<stop offset="1" style="stop-color:#F47960"/>
			</linearGradient>
			<path style="fill:url(#SVGID_00000119101290249267491940000010065224361165256838_);" d="M220.619,206.84     c-0.789,0.958-2.157,1.275-3.386,1.11c-1.23-0.165-2.362-0.738-3.467-1.303c-1.661-0.848-3.322-1.696-4.983-2.544     c1.123,3.094,1.777,6.401,1.501,9.681c-0.208,2.469-0.658,4.545-1.851,6.423c-0.477,0.751-1.649,0.478-1.787-0.402     c-0.482-3.055-0.82-5.876-0.422-9.091c0.592,3.832,0.466,9.649-2.224,9.285c-1.443-0.195-0.795-4.922-0.049-8.105     c-0.425,1.85-0.85,3.699-1.275,5.549c-0.196,0.851-0.804,0.603-1.676,0.556c-1.16-1.303,0.364-5.679,0.466-9.17     c-0.35,2.478-0.7,4.956-1.049,7.434c-0.974-0.063-1.24-1.357-1.251-2.333c-0.062-5.728-0.836-11.448-2.299-16.987     c5.421-0.289,6.864-1.991,11.162,1.448C209.051,199.21,220.162,207.395,220.619,206.84z"/>
			<g>
				
					<linearGradient id="SVGID_00000017482559806510738490000001610015675395405491_" gradientUnits="userSpaceOnUse" x1="197.6906" y1="188.9513" x2="192.4406" y2="122.2015">
					<stop offset="0.0614" style="stop-color:#001FA9"/>
					<stop offset="1" style="stop-color:#2F78FA"/>
				</linearGradient>
				<path style="fill:url(#SVGID_00000017482559806510738490000001610015675395405491_);" d="M207,196      c-5.16-9.015-4.965-17.104-2.343-23.926c-4.127-0.933-8.199-2.107-12.18-3.541c-1.717-0.618-3.432-1.275-5.066-1.355      C187.168,185.054,196,200,196,200S208.01,197.764,207,196z"/>
			</g>
			<g>
				<path style="fill:#D0DBFF;" d="M196.221,201.58c-1.057,0-1.94-0.828-1.995-1.896c-0.058-1.103,0.79-2.044,1.893-2.101      c3.167-0.165,6.339-1.473,8.702-3.589c0.823-0.736,2.087-0.668,2.824,0.156c0.737,0.823,0.667,2.087-0.155,2.824      c-3.075,2.754-7.04,4.389-11.163,4.604C196.292,201.579,196.256,201.58,196.221,201.58z"/>
			</g>
		</g>
	</g>
	<path id="SVGID_x5F_00000121246354305552701770000002280540933334678152_x5F_" style="fill:none;" d="M213.882,194.916   c0,0,13.215,8.328,45.53,0.996c28.432-6.451,26.7-26.76,26.7-26.76"/>
	<text>	<textPath xlink:href="#SVGID_x5F_00000121246354305552701770000002280540933334678152_x5F_" startOffset="32.7635%">
<tspan style="fill:#FFFFFF; font-family:'Cantarell-Bold'; font-size:10px;">FINISH</tspan>	</textPath>
</text>
</g>
</svg>