<svg xmlns="http://www.w3.org/2000/svg" xmlns:xlink="http://www.w3.org/1999/xlink" version="1.1" x="0px" y="0px" style="enable-background:new 0 0 500 500;" xml:space="preserve" viewBox="72.53 36.07 144.03 132.71">
	<g>
		<g>
				<linearGradient id="SVGID_1_" gradientUnits="userSpaceOnUse" x1="196.6209" y1="134.1756" x2="159.455" y2="69.8025">
					<stop offset="0.0979" style="stop-color:#ffffff"/>
					<stop offset="1" style="stop-color:#ffffff"/>
				</linearGradient>
				<path style="fill:url(#SVGID_1_);" d="M216.552,118.214c0,2.867-1.593,5.498-4.129,6.831l-2.301,1.203L146.652,97.51      c-1.428-0.755-2.454-1.64-3.068-2.666c-0.625-1.026-0.944-2.159-0.944-3.398l-0.102-11.876l69.873,31.826      c1.274,0.661,2.312,1.652,3.02,2.831C216.151,115.407,216.552,116.775,216.552,118.214z"/>
				
					<linearGradient id="SVGID_00000043457528917845131500000005041350668868183711_" gradientUnits="userSpaceOnUse" x1="190.9772" y1="114.2853" x2="157.2164" y2="168.3139">
					<stop offset="0" style="stop-color:#ffffff"/>
					<stop offset="0.3448" style="stop-color:#ffffff"/>
					<stop offset="1" style="stop-color:#ffffff"/>
				</linearGradient>
				<path style="fill:url(#SVGID_00000043457528917845131500000005041350668868183711_);" d="M210.122,126.248l-64.261,33.588      c-1.31,0.684-2.831,0.106-3.162-1.333c-0.236-0.979,0.236-1.947,1.085-2.383l30.803-16.068c0.519-0.271,0.708-0.908,0.448-1.404      c-0.271-0.507-0.908-0.708-1.404-0.448l-24.834,12.989c-1.416,0.743-3.115-0.295-3.115-1.888v-0.378      c0-0.79,0.436-1.522,1.144-1.888l23.17-12.116c0.496-0.26,0.696-0.897,0.425-1.392c-0.26-0.519-0.885-0.708-1.404-0.448      l-16.694,8.86c-1.439,0.755-3.15-0.307-3.115-1.923l0.012-0.944c0.024-0.802,0.472-1.522,1.192-1.864      c7.114-3.492,39.223-19.099,40.851-19.5L210.122,126.248z"/>
				
					<linearGradient id="SVGID_00000124853321375786797330000003837814223037291421_" gradientUnits="userSpaceOnUse" x1="-10.0796" y1="168.7732" x2="-10.0796" y2="159.2225" gradientTransform="matrix(-1 0 0 1 123.0717 0)">
					<stop offset="0" style="stop-color:#ffffff"/>
					<stop offset="1" style="stop-color:#ffffff"/>
				</linearGradient>
				<path style="fill:url(#SVGID_00000124853321375786797330000003837814223037291421_);" d="M137.18,159.47l-10.029,5.297      c-0.692,0.366-1.125,1.084-1.125,1.867v0.026c0,1.592,1.695,2.611,3.101,1.865l10.03-5.323c0.682-0.362,1.112-1.067,1.121-1.839      l0,0C140.297,159.762,138.596,158.722,137.18,159.47z"/>
				
					<linearGradient id="SVGID_00000028304182688086990040000009489188146701069700_" gradientUnits="userSpaceOnUse" x1="-15.1347" y1="157.3815" x2="-15.1347" y2="149.9702" gradientTransform="matrix(-1 0 0 1 123.0717 0)">
					<stop offset="0" style="stop-color:#ffffff"/>
					<stop offset="1" style="stop-color:#ffffff"/>
				</linearGradient>
				<path style="fill:url(#SVGID_00000028304182688086990040000009489188146701069700_);" d="M140.2,150.218l-5.959,3.158      c-0.692,0.366-1.125,1.084-1.125,1.867v0.026c0,1.592,1.695,2.611,3.101,1.865l5.958-3.183c0.682-0.362,1.112-1.067,1.121-1.839      l0,0C143.316,150.509,141.616,149.47,140.2,150.218z"/>
				
					<linearGradient id="SVGID_00000141414261481515271790000016432880328582388394_" gradientUnits="userSpaceOnUse" x1="-19.2952" y1="147.2291" x2="-19.2952" y2="141.0004" gradientTransform="matrix(-1 0 0 1 123.0717 0)">
					<stop offset="0" style="stop-color:#ffffff"/>
					<stop offset="1" style="stop-color:#ffffff"/>
				</linearGradient>
				<path style="fill:url(#SVGID_00000141414261481515271790000016432880328582388394_);" d="M143.235,141.248l-3.709,1.975      c-0.692,0.366-1.125,1.084-1.125,1.867v0.026c0,1.592,1.695,2.611,3.101,1.865l3.709-2.001c0.682-0.362,1.112-1.067,1.121-1.839      l0,0C146.352,141.539,144.651,140.5,143.235,141.248z"/>
		</g>
		<g>
				
					<linearGradient id="SVGID_00000050635909641659843750000013082246659145285786_" gradientUnits="userSpaceOnUse" x1="252.5055" y1="111.6756" x2="215.3396" y2="47.3025" gradientTransform="matrix(-1 0 0 -1 344.9622 182.3427)">
					<stop offset="0.0979" style="stop-color:#ffffff"/>
					<stop offset="1" style="stop-color:#ffffff"/>
				</linearGradient>
				<path style="fill:url(#SVGID_00000050635909641659843750000013082246659145285786_);" d="M72.525,86.628      c0-2.867,1.593-5.498,4.129-6.831l2.3-1.203l63.471,28.739c1.428,0.755,2.454,1.64,3.067,2.666      c0.625,1.026,0.944,2.159,0.944,3.398l0.102,11.876L76.666,93.447c-1.274-0.661-2.312-1.652-3.02-2.831      C72.927,89.436,72.525,88.068,72.525,86.628z"/>
				
					<linearGradient id="SVGID_00000103980596192044025800000015661739370562205321_" gradientUnits="userSpaceOnUse" x1="250.5784" y1="91.2546" x2="207.812" y2="144.0668" gradientTransform="matrix(-1 0 0 -1 344.9622 182.3427)">
					<stop offset="0" style="stop-color:#ffffff"/>
					<stop offset="0.3448" style="stop-color:#ffffff"/>
					<stop offset="1" style="stop-color:#ffffff"/>
				</linearGradient>
				<path style="fill:url(#SVGID_00000103980596192044025800000015661739370562205321_);" d="M78.955,78.594l64.261-33.588      c1.31-0.684,2.831-0.106,3.162,1.333c0.236,0.979-0.236,1.947-1.085,2.383l-30.803,16.068c-0.519,0.271-0.708,0.909-0.448,1.404      c0.271,0.507,0.909,0.708,1.404,0.448l24.834-12.989c1.416-0.743,3.115,0.295,3.115,1.888v0.378      c0,0.791-0.436,1.522-1.144,1.888l-23.17,12.116c-0.496,0.26-0.696,0.897-0.425,1.392c0.259,0.519,0.885,0.708,1.404,0.448      l16.694-8.86c1.439-0.755,3.15,0.307,3.115,1.923l-0.012,0.944c-0.024,0.802-0.472,1.522-1.191,1.864      c-7.114,3.492-39.223,19.099-40.851,19.5L78.955,78.594z"/>
				
					<linearGradient id="SVGID_00000091002190771123342120000003806668514123196326_" gradientUnits="userSpaceOnUse" x1="-65.9642" y1="146.2731" x2="-65.9642" y2="136.7225" gradientTransform="matrix(1 0 0 -1 221.8905 182.3427)">
					<stop offset="0" style="stop-color:#ffffff"/>
					<stop offset="1" style="stop-color:#ffffff"/>
				</linearGradient>
				<path style="fill:url(#SVGID_00000091002190771123342120000003806668514123196326_);" d="M151.897,45.373l10.029-5.297      c0.692-0.366,1.125-1.084,1.125-1.867v-0.026c0-1.592-1.695-2.611-3.101-1.865l-10.029,5.323      c-0.682,0.362-1.112,1.067-1.121,1.839l0,0C148.781,45.081,150.481,46.121,151.897,45.373z"/>
				
					<linearGradient id="SVGID_00000101061228142078743880000004410919630780299397_" gradientUnits="userSpaceOnUse" x1="-71.0192" y1="134.8815" x2="-71.0192" y2="127.4702" gradientTransform="matrix(1 0 0 -1 221.8905 182.3427)">
					<stop offset="0" style="stop-color:#ffffff"/>
					<stop offset="1" style="stop-color:#ffffff"/>
				</linearGradient>
				<path style="fill:url(#SVGID_00000101061228142078743880000004410919630780299397_);" d="M148.878,54.625l5.958-3.158      c0.692-0.365,1.125-1.084,1.125-1.867v-0.026c0-1.592-1.695-2.611-3.101-1.865l-5.959,3.183      c-0.682,0.362-1.112,1.067-1.121,1.839l0,0C145.761,54.334,147.462,55.373,148.878,54.625z"/>
				
					<linearGradient id="SVGID_00000175291000419144699280000008084215957582932922_" gradientUnits="userSpaceOnUse" x1="-75.1797" y1="124.7291" x2="-75.1797" y2="118.5003" gradientTransform="matrix(1 0 0 -1 221.8905 182.3427)">
					<stop offset="0" style="stop-color:#ffffff"/>
					<stop offset="1" style="stop-color:#ffffff"/>
				</linearGradient>
				<path style="fill:url(#SVGID_00000175291000419144699280000008084215957582932922_);" d="M145.842,63.595l3.709-1.975      c0.692-0.366,1.125-1.084,1.125-1.867v-0.026c0-1.592-1.695-2.611-3.101-1.865l-3.709,2.001      c-0.682,0.362-1.112,1.067-1.121,1.838l0,0C142.725,63.304,144.426,64.343,145.842,63.595z"/>
		</g>
	</g>
	
		
		
</svg>